<mxfile host="app.diagrams.net" modified="2023-05-29T11:41:17.680Z" agent="Mozilla/5.0 (Macintosh; Intel Mac OS X 10_15_7) AppleWebKit/537.36 (KHTML, like Gecko) Chrome/113.0.0.0 Safari/537.36" etag="VJbLGD0l1vJsMEoyv7xy" version="21.3.5" type="github">
  <diagram name="第 1 页" id="SNQtHYCIwjNwvBl_s8rR">
    <mxGraphModel dx="2006" dy="538" grid="1" gridSize="10" guides="1" tooltips="1" connect="1" arrows="1" fold="1" page="1" pageScale="1" pageWidth="980" pageHeight="1390" math="0" shadow="0">
      <root>
        <mxCell id="0" />
        <mxCell id="1" parent="0" />
        <mxCell id="BmoRcRNRuyIgXf3-Gvv6-1" value="" style="edgeStyle=orthogonalEdgeStyle;orthogonalLoop=1;jettySize=auto;html=1;" edge="1" parent="1" source="BmoRcRNRuyIgXf3-Gvv6-2" target="BmoRcRNRuyIgXf3-Gvv6-4">
          <mxGeometry relative="1" as="geometry" />
        </mxCell>
        <mxCell id="BmoRcRNRuyIgXf3-Gvv6-2" value="商户发起批次查询交易" style="strokeWidth=1;html=1;shape=mxgraph.flowchart.start_1;whiteSpace=wrap;labelBackgroundColor=none;rounded=0;" vertex="1" parent="1">
          <mxGeometry x="-900" y="90" width="100" height="60" as="geometry" />
        </mxCell>
        <mxCell id="BmoRcRNRuyIgXf3-Gvv6-3" value="成功" style="edgeLabel;html=1;align=center;verticalAlign=middle;resizable=0;points=[];" vertex="1" connectable="0" parent="1">
          <mxGeometry x="-850" y="283.6842105263157" as="geometry" />
        </mxCell>
        <mxCell id="BmoRcRNRuyIgXf3-Gvv6-4" value="请求参数校验" style="rhombus;whiteSpace=wrap;html=1;strokeWidth=1;labelBackgroundColor=none;rounded=0;" vertex="1" parent="1">
          <mxGeometry x="-900" y="190" width="100" height="80" as="geometry" />
        </mxCell>
        <mxCell id="BmoRcRNRuyIgXf3-Gvv6-5" value="结束" style="strokeWidth=1;html=1;shape=mxgraph.flowchart.terminator;whiteSpace=wrap;labelBackgroundColor=none;rounded=0;" vertex="1" parent="1">
          <mxGeometry x="-900" y="600" width="100" height="60" as="geometry" />
        </mxCell>
        <mxCell id="BmoRcRNRuyIgXf3-Gvv6-6" value="" style="edgeStyle=orthogonalEdgeStyle;orthogonalLoop=1;jettySize=auto;html=1;" edge="1" parent="1" source="BmoRcRNRuyIgXf3-Gvv6-7" target="BmoRcRNRuyIgXf3-Gvv6-9">
          <mxGeometry relative="1" as="geometry" />
        </mxCell>
        <mxCell id="BmoRcRNRuyIgXf3-Gvv6-7" value="登记交易查询流水表&lt;br&gt;状态为初始[00]" style="whiteSpace=wrap;html=1;strokeWidth=1;labelBackgroundColor=none;rounded=0;" vertex="1" parent="1">
          <mxGeometry x="-910" y="310" width="120" height="60" as="geometry" />
        </mxCell>
        <mxCell id="BmoRcRNRuyIgXf3-Gvv6-8" value="" style="edgeStyle=orthogonalEdgeStyle;orthogonalLoop=1;jettySize=auto;html=1;" edge="1" parent="1" source="BmoRcRNRuyIgXf3-Gvv6-9" target="BmoRcRNRuyIgXf3-Gvv6-11">
          <mxGeometry relative="1" as="geometry" />
        </mxCell>
        <mxCell id="BmoRcRNRuyIgXf3-Gvv6-9" value="根据原流水号查询资金流水状态" style="whiteSpace=wrap;html=1;strokeWidth=1;labelBackgroundColor=none;rounded=0;" vertex="1" parent="1">
          <mxGeometry x="-910" y="400" width="120" height="60" as="geometry" />
        </mxCell>
        <mxCell id="BmoRcRNRuyIgXf3-Gvv6-10" value="" style="edgeStyle=orthogonalEdgeStyle;orthogonalLoop=1;jettySize=auto;html=1;" edge="1" parent="1" source="BmoRcRNRuyIgXf3-Gvv6-11" target="BmoRcRNRuyIgXf3-Gvv6-5">
          <mxGeometry relative="1" as="geometry" />
        </mxCell>
        <mxCell id="BmoRcRNRuyIgXf3-Gvv6-11" value="返回查询结果" style="shape=parallelogram;perimeter=parallelogramPerimeter;whiteSpace=wrap;html=1;fixedSize=1;strokeWidth=1;labelBackgroundColor=none;rounded=0;" vertex="1" parent="1">
          <mxGeometry x="-910" y="500" width="120" height="60" as="geometry" />
        </mxCell>
        <mxCell id="BmoRcRNRuyIgXf3-Gvv6-12" value="批次查询交易流程" style="text;html=1;strokeColor=none;fillColor=none;align=center;verticalAlign=middle;whiteSpace=wrap;rounded=0;fontSize=20;labelBackgroundColor=none;" vertex="1" parent="1">
          <mxGeometry x="-940" y="30" width="180" height="30" as="geometry" />
        </mxCell>
      </root>
    </mxGraphModel>
  </diagram>
</mxfile>
